<svg width="24" height="24" viewBox="0 0 24 24" fill="none" xmlns="http://www.w3.org/2000/svg">
<path d="M8.2006 4.0395L8.73905 3.61059C9.64371 2.88995 10.9887 3.27185 11.3797 4.36036C11.7575 5.41204 11.74 6.56519 11.3305 7.60494L10.9022 8.69267C10.4983 9.71841 10.6012 10.8745 11.18 11.8127L11.7992 12.8165C12.0005 13.1427 12.2353 13.447 12.4998 13.7244L13.1935 14.4518C14.0035 15.3012 15.1853 15.6881 16.3408 15.4821L16.8327 15.3943C18.1736 15.1552 19.5558 15.3962 20.7367 16.0749C21.531 16.5315 21.6153 17.645 20.8987 18.2158L20.6206 18.4373C17.8127 20.674 13.7232 20.211 11.4865 17.4031L7.28472 12.1283C5.30399 9.6417 5.71404 6.02024 8.2006 4.0395Z" stroke="#333333"/>
</svg>
