<svg width="17" height="19" viewBox="0 0 17 19" fill="none" xmlns="http://www.w3.org/2000/svg">
<path d="M3.2006 2.0395L3.73905 1.61059C4.64371 0.889952 5.98873 1.27185 6.37971 2.36036C6.75747 3.41204 6.74 4.56519 6.33055 5.60494L5.9022 6.69267C5.49827 7.71841 5.60121 8.8745 6.18002 9.81274L6.79922 10.8165C7.00047 11.1427 7.23527 11.447 7.49979 11.7244L8.19346 12.4518C9.00347 13.3012 10.1853 13.6881 11.3408 13.4821L11.8327 13.3943C13.1736 13.1552 14.5558 13.3962 15.7367 14.0749C16.531 14.5315 16.6153 15.645 15.8987 16.2158L15.6206 16.4373C12.8127 18.674 8.72325 18.211 6.48655 15.4031L2.28472 10.1283C0.303988 7.6417 0.714038 4.02024 3.2006 2.0395Z" stroke="white"/>
</svg>
